# xmcd CD database file
#
# Track frame offsets:
#	150
#	16645
#	43577
#
# Disc length: 798 seconds
#
# Revision: 0
# Processed by: cddbd v1.5.1PL0 Copyright (c) Steve Scherf et al.
# Submitted via: CDex 1.51
#
DISCID=15031c03
DTITLE=吉岡忍 - 春の風
DYEAR=1995
DGENRE=JPop
TTITLE0=春の風
TTITLE1=遠い空
TTITLE2=春の風（オリジナル・カラオケ）
EXTD=YEAR: 1995
EXTT0=
EXTT1=
EXTT2=
PLAYORDER=
